<?xml version="1.0" encoding="UTF-8" standalone="no"?>
<!-- Generator: Adobe Illustrator 16.2.1, SVG Export Plug-In . SVG Version: 6.00 Build 0)  -->

<svg
   xmlns:dc="http://purl.org/dc/elements/1.1/"
   xmlns:cc="http://creativecommons.org/ns#"
   xmlns:rdf="http://www.w3.org/1999/02/22-rdf-syntax-ns#"
   xmlns:svg="http://www.w3.org/2000/svg"
   xmlns="http://www.w3.org/2000/svg"
   xmlns:sodipodi="http://sodipodi.sourceforge.net/DTD/sodipodi-0.dtd"
   xmlns:inkscape="http://www.inkscape.org/namespaces/inkscape"
   version="1.1"
   id="Layer_1"
   x="0px"
   y="0px"
   width="19"
   height="10"
   viewBox="0 0 19 10"
   enable-background="new 0 0 19 33"
   xml:space="preserve"
   inkscape:version="0.48.5 r10040"
   sodipodi:docname="chevron-down.colors-white-brandblue.svg"><metadata
   id="metadata3010"><rdf:RDF><cc:Work
       rdf:about=""><dc:format>image/svg+xml</dc:format><dc:type
         rdf:resource="http://purl.org/dc/dcmitype/StillImage" /><dc:title></dc:title></cc:Work></rdf:RDF></metadata><defs
   id="defs3008" /><sodipodi:namedview
   pagecolor="#ffffff"
   bordercolor="#666666"
   borderopacity="1"
   objecttolerance="10"
   gridtolerance="10"
   guidetolerance="10"
   inkscape:pageopacity="0"
   inkscape:pageshadow="2"
   inkscape:window-width="1064"
   inkscape:window-height="961"
   id="namedview3006"
   showgrid="false"
   inkscape:zoom="15.848485"
   inkscape:cx="1.959847"
   inkscape:cy="16.5"
   inkscape:window-x="0"
   inkscape:window-y="0"
   inkscape:window-maximized="0"
   inkscape:current-layer="Layer_1" />
<path
   d="m 18.199216,0.86021702 c -0.494588,-0.4962536 -1.152373,-0.4945884 -1.853457,0 l -6.8393061,5.48376858 -0.00667,-0.00333 -0.005,0.00333 -6.8393068,-5.48376858 c -0.7010831,-0.4945884 -1.3588688,-0.4962536 -1.85345715,0 C 0.29078524,1.3731234 0.29078524,2.2040984 0.80035736,2.7136742 L 8.5755611,9.1250039 C 8.8186921,9.3714654 9.145087,9.5080184 9.4964612,9.511349 h 0.00333 c 0.00167,0 0.00167,0 0.00167,0 0,0 0,0 0,0 h 0.00333 C 9.8561616,9.5080184 10.180891,9.3714654 10.425688,9.1250039 l 7.775194,-6.4113297 c 0.50791,-0.5112411 0.50791,-1.3422161 -0.0016,-1.85345718 z"
   id="path3004"
   style="fill:#000000"
   inkscape:connector-curvature="0" />
</svg>