<?xml version="1.0" encoding="utf-8"?>
<!-- Generator: Adobe Illustrator 18.0.0, SVG Export Plug-In . SVG Version: 6.00 Build 0)  -->
<!DOCTYPE svg PUBLIC "-//W3C//DTD SVG 1.1//EN" "http://www.w3.org/Graphics/SVG/1.1/DTD/svg11.dtd">
<svg version="1.1" id="Layer_1" xmlns="http://www.w3.org/2000/svg" xmlns:xlink="http://www.w3.org/1999/xlink" x="0px" y="0px"
	 viewBox="0 0 49 15" enable-background="new 0 0 49 15" xml:space="preserve">
<g>
	<g>
		<defs>
			<path id="SVGID_1_" d="M44.9,12.8c0,1.2,0.7,1.9,2,1.9c1.2,0,2-0.7,2-1.9c0-1.2-0.7-1.9-2-1.9C45.6,10.9,44.9,11.6,44.9,12.8"/>
		</defs>
		<use xlink:href="#SVGID_1_"  overflow="visible" fill="#FFFFFF"/>
		<clipPath id="SVGID_2_">
			<use xlink:href="#SVGID_1_"  overflow="visible"/>
		</clipPath>
		<rect x="44.9" y="10.9" clip-path="url(#SVGID_2_)" fill="#FFFFFF" width="4" height="3.8"/>
	</g>
</g>
<g>
	<g>
		<defs>
			<path id="SVGID_3_" d="M23.8,9.2c0-1.1,0.6-1.7,1.6-1.7c0.5,0,1.1,0.2,1.4,0.4v2.5c-0.5,0.3-1,0.4-1.4,0.4
				C24.5,10.9,23.8,10.3,23.8,9.2 M6.1,0.2C2.2,0.2,0,2.2,0,4.9C0,7,1,8.1,3.4,8.8l2.6,0.7c0.6,0.2,0.9,0.4,0.9,0.8
				c0,0.5-0.4,0.9-1.3,0.9c-1.4,0-3.1-0.7-4.3-1.5l-1.1,3.9c1,0.5,3.1,1.2,5.3,1.2c3.2,0,5.2-1.4,5.8-3.5c0.3,2.3,1.8,3.5,4,3.5
				c1.9,0,3.4-0.5,4.6-1.2l0.6-0.4c0.9,1,2.1,1.5,3.5,1.5c1.4,0,2.5-0.6,3.1-1.5c0.5,1.1,1.5,1.5,2.8,1.5c1.1,0,2.1-0.2,2.7-0.3v0.1
				h4.6V8.1c0.3-0.2,0.6-0.3,1.2-0.3c0.7,0,1.2,0.4,1.2,1.4v5.5h4.6V8c0,0,0-1.8-0.7-2.8c-0.6-1-1.7-1.7-3.3-1.7
				c-1.2,0-2.2,0.4-3,1.1V3.7h-4.6v7.2C32.5,11,32.3,11,32,11c-0.4,0-0.5-0.4-0.5-0.8V3.7h-4.6v1c-0.6-0.7-1.5-1.2-2.8-1.2
				c-2.9,0-4.9,2.4-4.9,5.7c0,0.3,0,0.6,0.1,0.9c0,0,0,0,0,0l-0.5,0.3c-0.7,0.3-1.2,0.5-1.8,0.5c-0.6,0-1-0.3-1-1V7.2H19V3.7h-3.1V1
				h-4.6l0,7.7c-0.5-1.1-1.6-2-3.6-2.6L5.4,5.3C4.8,5.1,4.6,5,4.6,4.7c0-0.5,0.4-0.8,1.3-0.8c1.3,0,3.2,0.7,4.3,1.4l0-4.2
				C8.9,0.6,8.1,0.2,6.1,0.2z"/>
		</defs>
		<use xlink:href="#SVGID_3_"  overflow="visible" fill="#FFFFFF"/>
		<clipPath id="SVGID_4_">
			<use xlink:href="#SVGID_3_"  overflow="visible"/>
		</clipPath>
		<rect y="0.2" clip-path="url(#SVGID_4_)" fill="#FFFFFF" width="44.4" height="14.7"/>
	</g>
</g>
<g>
	<g>
		<defs>
			<path id="SVGID_5_" d="M11.3,1l0,7.7c0.1,0.2,0.2,0.4,0.3,0.6l0-8h4.3V1H11.3z"/>
		</defs>
		<use xlink:href="#SVGID_5_"  overflow="visible" fill="#FFFFFF"/>
		<clipPath id="SVGID_6_">
			<use xlink:href="#SVGID_5_"  overflow="visible"/>
		</clipPath>
		<rect x="11.3" y="1" clip-path="url(#SVGID_6_)" fill="#FFFFFF" width="4.6" height="8.3"/>
	</g>
</g>
<g>
	<g>
		<defs>
			<path id="SVGID_7_" d="M26.8,10.5c-0.5,0.3-1,0.4-1.4,0.4c-0.4,0-0.7-0.1-0.9-0.3c0.3,0.4,0.7,0.6,1.3,0.6c0.4,0,1-0.1,1.4-0.4
				V8.1C27.1,8,27,8,26.8,7.9C26.8,7.9,26.8,10.5,26.8,10.5z"/>
		</defs>
		<use xlink:href="#SVGID_7_"  overflow="visible" fill="#FFFFFF"/>
		<clipPath id="SVGID_8_">
			<use xlink:href="#SVGID_7_"  overflow="visible"/>
		</clipPath>
		<rect x="24.5" y="7.9" clip-path="url(#SVGID_8_)" fill="#FFFFFF" width="2.7" height="3.3"/>
	</g>
</g>
<g>
	<g>
		<defs>
			<polygon id="SVGID_9_" points="15.9,3.7 16.2,4 19,4 19,3.7 			"/>
		</defs>
		<use xlink:href="#SVGID_9_"  overflow="visible" fill="#FFFFFF"/>
		<clipPath id="SVGID_10_">
			<use xlink:href="#SVGID_9_"  overflow="visible"/>
		</clipPath>
		<rect x="15.9" y="3.7" clip-path="url(#SVGID_10_)" fill="#FFFFFF" width="3.1" height="0.3"/>
	</g>
</g>
<g>
	<g>
		<defs>
			<path id="SVGID_11_" d="M26.8,4.7L26.8,4.7C26.8,4.7,26.8,4.7,26.8,4.7C26.8,4.7,26.8,4.7,26.8,4.7 M26.8,3.7v1
				C27,4.8,27.1,4.9,27.2,5V4h4.3V3.7H26.8z M19.3,7.4v0.1h0c-0.1,0.5-0.2,1.1-0.2,1.7c0,0.3,0,0.6,0.1,0.9c0,0,0,0,0,0l-0.5,0.3
				c-0.7,0.3-1.2,0.5-1.8,0.5c-0.2,0-0.4,0-0.5-0.1c0.1,0.3,0.4,0.4,0.9,0.4c0.6,0,1.2-0.2,1.8-0.5l0.5-0.3c0,0,0,0,0,0
				c0-0.3-0.1-0.6-0.1-0.9c0-3.3,2-5.7,4.9-5.7c1.1,0,1.9,0.3,2.5,0.9c-0.6-0.7-1.5-1.2-2.8-1.2C21.7,3.5,19.9,5.1,19.3,7.4"/>
		</defs>
		<use xlink:href="#SVGID_11_"  overflow="visible" fill="#FFFFFF"/>
		<clipPath id="SVGID_12_">
			<use xlink:href="#SVGID_11_"  overflow="visible"/>
		</clipPath>
		<rect x="16.3" y="3.5" clip-path="url(#SVGID_12_)" fill="#FFFFFF" width="15.1" height="7.7"/>
	</g>
</g>
<g>
	<g>
		<defs>
			<path id="SVGID_13_" d="M37.7,4.3l-0.3,0.2l0.3,0.3c0.8-0.7,1.8-1.1,3-1.1c1.1,0,1.9,0.3,2.5,0.9c-0.6-0.7-1.6-1.2-2.9-1.2
				C39.4,3.5,38.5,3.8,37.7,4.3"/>
		</defs>
		<use xlink:href="#SVGID_13_"  overflow="visible" fill="#FFFFFF"/>
		<clipPath id="SVGID_14_">
			<use xlink:href="#SVGID_13_"  overflow="visible"/>
		</clipPath>
		<rect x="37.4" y="3.5" clip-path="url(#SVGID_14_)" fill="#FFFFFF" width="5.9" height="1.4"/>
	</g>
</g>
<g>
	<g>
		<defs>
			<path id="SVGID_15_" d="M32.8,3.7v7.2C32.5,11,32.3,11,32,11c-0.1,0-0.1,0-0.1,0c0.1,0.2,0.2,0.3,0.5,0.3s0.5-0.1,0.8-0.1V4h4.3
				V3.7H32.8z"/>
		</defs>
		<use xlink:href="#SVGID_15_"  overflow="visible" fill="#FFFFFF"/>
		<clipPath id="SVGID_16_">
			<use xlink:href="#SVGID_15_"  overflow="visible"/>
		</clipPath>
		<rect x="31.9" y="3.7" clip-path="url(#SVGID_16_)" fill="#FFFFFF" width="5.5" height="7.7"/>
	</g>
</g>
<g>
	<g>
		<defs>
			<path id="SVGID_17_" d="M39.7,9.1v5.5H40V9.5c0-0.6-0.2-1-0.5-1.2C39.7,8.4,39.7,8.7,39.7,9.1"/>
		</defs>
		<use xlink:href="#SVGID_17_"  overflow="visible" fill="#FFFFFF"/>
		<clipPath id="SVGID_18_">
			<use xlink:href="#SVGID_17_"  overflow="visible"/>
		</clipPath>
		<rect x="39.5" y="8.2" clip-path="url(#SVGID_18_)" fill="#FFFFFF" width="0.5" height="6.5"/>
	</g>
</g>
<g>
	<g>
		<defs>
			<path id="SVGID_19_" d="M44.9,12.8c0,0.7,0.2,1.2,0.7,1.5c-0.2-0.3-0.3-0.7-0.3-1.2c0-1.2,0.7-1.9,2-1.9c0.5,0,1,0.1,1.3,0.4
				c-0.3-0.5-0.9-0.7-1.6-0.7C45.6,10.9,44.9,11.6,44.9,12.8"/>
		</defs>
		<use xlink:href="#SVGID_19_"  overflow="visible" fill="#FFFFFF"/>
		<clipPath id="SVGID_20_">
			<use xlink:href="#SVGID_19_"  overflow="visible"/>
		</clipPath>
		<rect x="44.9" y="10.9" clip-path="url(#SVGID_20_)" fill="#FFFFFF" width="3.6" height="3.4"/>
	</g>
</g>
<g>
	<g>
		<defs>
			<path id="SVGID_21_" d="M0.2,13.7c0.1,0.1,0.2,0.1,0.4,0.2l1-3.8c1.2,0.8,2.9,1.5,4.3,1.5c0.9,0,1.3-0.4,1.3-0.9
				c0-0.2-0.1-0.4-0.4-0.5c0,0.1,0.1,0.1,0.1,0.2c0,0.5-0.4,0.9-1.3,0.9c-1.4,0-3.1-0.7-4.3-1.5L0.2,13.7z"/>
		</defs>
		<use xlink:href="#SVGID_21_"  overflow="visible" fill="#FFFFFF"/>
		<clipPath id="SVGID_22_">
			<use xlink:href="#SVGID_21_"  overflow="visible"/>
		</clipPath>
		<rect x="0.2" y="9.7" clip-path="url(#SVGID_22_)" fill="#FFFFFF" width="7" height="4.1"/>
	</g>
</g>
<g>
	<g>
		<defs>
			<path id="SVGID_23_" d="M20.9,13.6C20.9,13.7,20.9,13.7,20.9,13.6C20.9,13.7,20.9,13.7,20.9,13.6L20.9,13.6z"/>
		</defs>
		<use xlink:href="#SVGID_23_"  overflow="visible" fill="#FFFFFF"/>
		<clipPath id="SVGID_24_">
			<use xlink:href="#SVGID_23_"  overflow="visible"/>
		</clipPath>
		<rect x="20.9" y="13.6" clip-path="url(#SVGID_24_)" fill="#FFFFFF" width="0.1" height="0.1"/>
	</g>
</g>
<g>
	<g>
		<defs>
			<path id="SVGID_25_" d="M6.1,0.2C2.2,0.2,0,2.2,0,4.9C0,6.1,0.4,7,1.1,7.7C0.6,7.1,0.3,6.3,0.3,5.2c0-2.7,2.2-4.7,6.1-4.7
				c1.8,0,2.7,0.3,3.8,0.7l0-0.2C8.9,0.6,8.1,0.2,6.1,0.2z"/>
		</defs>
		<use xlink:href="#SVGID_25_"  overflow="visible" fill="#FFFFFF"/>
		<clipPath id="SVGID_26_">
			<use xlink:href="#SVGID_25_"  overflow="visible"/>
		</clipPath>
		<rect y="0.2" clip-path="url(#SVGID_26_)" fill="#FFFFFF" width="10.2" height="7.5"/>
	</g>
</g>
</svg>
