<?xml version="1.0" encoding="utf-8"?>
<!-- Generator: Adobe Illustrator 16.0.0, SVG Export Plug-In . SVG Version: 6.00 Build 0)  -->
<!DOCTYPE svg PUBLIC "-//W3C//DTD SVG 1.1//EN" "http://www.w3.org/Graphics/SVG/1.1/DTD/svg11.dtd">
<svg version="1.1" id="Layer_1" xmlns="http://www.w3.org/2000/svg" xmlns:xlink="http://www.w3.org/1999/xlink" x="0px" y="0px"
	 width="84px" height="18.723px" viewBox="0 0 84 18.723" enable-background="new 0 0 84 18.723" xml:space="preserve">
<g>
	<defs>
		<rect id="SVGID_1_" width="84" height="18.723"/>
	</defs>
	<clipPath id="SVGID_2_">
		<use xlink:href="#SVGID_1_"  overflow="visible"/>
	</clipPath>
	<path clip-path="url(#SVGID_2_)" fill="#FDC82B" d="M20.629,4.358H12.89c-0.604,0-1.227,0.476-1.227,1.273v3.812
		c0,0.904,0.646,1.316,1.244,1.316l6.467,0.012v1.297l-6.457,0.002c-0.7,0.008-1.272,0.584-1.272,1.285
		c0,0.65,0.462,1.207,1.033,1.279l0.12,0.008l7.831-0.002c0.973,0,1.317-0.709,1.317-1.316V5.697
		C21.946,4.777,21.264,4.358,20.629,4.358 M19.373,8.285h-5.137V6.93h5.135L19.373,8.285z"/>
	<path clip-path="url(#SVGID_2_)" fill="#FDC82B" d="M1.496,8.008C0.671,8.008,0,8.679,0,9.504C0,10.328,0.671,11,1.496,11
		c0.824,0,1.495-0.672,1.496-1.496C2.991,8.679,2.32,8.008,1.496,8.008"/>
	<path clip-path="url(#SVGID_2_)" fill="#FDC82B" d="M1.496,11.656C0.671,11.656,0,12.326,0,13.152c0,0.824,0.671,1.496,1.496,1.496
		c0.824,0,1.495-0.672,1.495-1.496C2.991,12.326,2.32,11.656,1.496,11.656"/>
	<path clip-path="url(#SVGID_2_)" fill="#FDC82B" d="M5.39,4.36C4.565,4.361,3.895,5.031,3.895,5.856
		c0,0.825,0.671,1.496,1.495,1.496c0.825,0,1.496-0.671,1.497-1.496C6.886,5.031,6.215,4.361,5.39,4.36"/>
	<path clip-path="url(#SVGID_2_)" fill="#FDC82B" d="M5.391,8.008c-0.825,0-1.496,0.671-1.496,1.496C3.895,10.328,4.565,11,5.391,11
		c0.824,0,1.495-0.672,1.495-1.496C6.886,8.679,6.215,8.008,5.391,8.008"/>
	<path clip-path="url(#SVGID_2_)" fill="#FDC82B" d="M5.39,11.656c-0.824,0-1.495,0.67-1.495,1.496c0,0.824,0.671,1.496,1.495,1.496
		c0.825,0,1.496-0.672,1.497-1.496C6.886,12.326,6.215,11.656,5.39,11.656"/>
	<path clip-path="url(#SVGID_2_)" fill="#FDC82B" d="M9.285,7.353c0.825-0.001,1.495-0.671,1.496-1.496
		C10.78,5.033,10.11,4.36,9.285,4.36c-0.824,0-1.496,0.672-1.496,1.496C7.789,6.682,8.461,7.352,9.285,7.353"/>
	<path clip-path="url(#SVGID_2_)" fill="#FDC82B" d="M9.285,8.008c-0.825,0-1.496,0.671-1.496,1.496C7.789,10.328,8.46,11,9.285,11
		c0.825,0,1.495-0.672,1.496-1.496C10.78,8.679,10.11,8.008,9.285,8.008"/>
	<path clip-path="url(#SVGID_2_)" fill="#FDC82B" d="M9.285,11.656c-0.824,0-1.496,0.67-1.496,1.496
		c0,0.824,0.672,1.496,1.496,1.496c0.824,0,1.495-0.672,1.495-1.496C10.78,12.326,10.109,11.656,9.285,11.656"/>
	<path clip-path="url(#SVGID_2_)" fill="#FDC82B" d="M1.496,4.36C0.671,4.361,0,5.031,0,5.856c0,0.825,0.671,1.496,1.496,1.496
		c0.824,0,1.495-0.671,1.496-1.496C2.991,5.031,2.32,4.361,1.496,4.36"/>
	<path clip-path="url(#SVGID_2_)" fill="#FFFFFF" d="M80.258,14.648v-5.55c0-1.039-0.561-1.434-1.455-1.434
		c-0.852,0-1.288,0.436-1.6,0.79v6.194h-3.742V4.608h3.742v1.144c0.581-0.666,1.684-1.393,3.45-1.393
		C82.981,4.359,84,5.772,84,7.518v7.13H80.258z"/>
	<path clip-path="url(#SVGID_2_)" fill="#E5147B" d="M36.571,14.648v-1.123c-0.582,0.645-1.684,1.371-3.451,1.371
		c-2.328,0-3.325-1.391-3.325-3.117V4.608h3.741v5.572c0,1.018,0.541,1.412,1.455,1.412c0.832,0,1.268-0.436,1.58-0.789V4.608h3.741
		v10.041H36.571z"/>
	<path clip-path="url(#SVGID_2_)" fill="#E5147B" d="M53.97,14.648V8.786c0-0.602-0.311-1.122-1.143-1.122s-1.289,0.499-1.539,0.79
		v6.194h-3.741V8.786c0-0.602-0.291-1.122-1.144-1.122c-0.811,0-1.268,0.499-1.518,0.79v6.194h-3.741V4.608h3.741v1.144
		c0.437-0.562,1.705-1.393,3.326-1.393c1.413,0,2.432,0.519,2.89,1.767c0.582-0.874,1.892-1.767,3.513-1.767
		c1.85,0,3.097,0.935,3.097,3.014v7.275H53.97z"/>
	<path clip-path="url(#SVGID_2_)" fill="#E5147B" d="M62.285,13.588v4.885h-3.741V4.608h3.741v1.061
		c0.811-0.956,1.787-1.31,2.826-1.31c2.495,0,4.407,1.829,4.407,5.259c0,3.451-1.912,5.281-4.407,5.281
		C64.072,14.898,63.116,14.543,62.285,13.588 M65.693,9.618c0-1.247-0.873-1.954-1.87-1.954c-0.479,0-1.186,0.249-1.538,0.686v2.557
		c0.332,0.416,1.06,0.686,1.538,0.686C64.82,11.592,65.693,10.885,65.693,9.618"/>
	<path clip-path="url(#SVGID_2_)" fill="#E5147B" d="M27.091,5.286c-0.69,0-1.334-0.257-1.838-0.678h-0.031v9.603
		c0,0.957-0.416,1.455-1.102,1.455c-0.582,0-0.832-0.082-1.247-0.395l-0.893,2.766c0.81,0.498,1.288,0.686,2.805,0.686
		c2.911,0,4.178-1.934,4.178-4.512V4.608H28.93C28.425,5.029,27.781,5.286,27.091,5.286"/>
	<path clip-path="url(#SVGID_2_)" fill="#FFFFFF" d="M70.759,5.286c-0.69,0-1.334-0.257-1.839-0.678h-0.032v0.706
		c0.89,0.942,1.476,2.446,1.476,4.304c0,1.869-0.571,3.392-1.476,4.333v0.697h3.742V4.608h-0.032
		C72.093,5.029,71.449,5.286,70.759,5.286"/>
	<path clip-path="url(#SVGID_2_)" fill="#FDC82B" d="M70.759,0c-1.293,0-2.386,1.092-2.386,2.385c0,1.293,1.093,2.385,2.386,2.385
		s2.385-1.092,2.385-2.385C73.144,1.092,72.052,0,70.759,0"/>
	<path clip-path="url(#SVGID_2_)" fill="#FDC82B" d="M27.079,0c-1.292,0-2.385,1.092-2.385,2.385c0,1.293,1.093,2.385,2.385,2.385
		c1.293,0,2.386-1.092,2.386-2.385C29.465,1.092,28.372,0,27.079,0"/>
</g>
</svg>
