<?xml version="1.0" encoding="utf-8"?>
<!-- Generator: Adobe Illustrator 16.0.0, SVG Export Plug-In . SVG Version: 6.00 Build 0)  -->
<!DOCTYPE svg PUBLIC "-//W3C//DTD SVG 1.1//EN" "http://www.w3.org/Graphics/SVG/1.1/DTD/svg11.dtd">
<svg version="1.1" id="Layer_1" xmlns="http://www.w3.org/2000/svg" xmlns:xlink="http://www.w3.org/1999/xlink" x="0px" y="0px"
	 width="440px" height="52px" viewBox="0 0 440 52" enable-background="new 0 0 440 52" xml:space="preserve">
<path fill="#2675B9" d="M181.775,35.273c-1.455,2.251-5.471,6.431-14.693,6.235c-8.331-0.177-17.242-2.968-17.833-12.075h42.632
	c0,0,0.06-3.58-0.737-8.419c-1.405-8.529-7.781-20.176-25.19-20.176c-16.699,0-28.362,10.711-28.362,26.048
	c0,14.98,10.85,24.659,28.861,24.659c13.242,0,20.292-4.711,24.191-10.533L181.775,35.273z M180.498,21.026H149.25
	c1.836-4.734,6.975-11.016,15.888-11.016C173.628,10.011,178.857,15.461,180.498,21.026z"/>
<path fill="#CED0D1" d="M274.863,6.908c-2.076-1.919-4.642-3.423-7.625-4.47c-2.937-1.032-6.293-1.556-9.976-1.556
	c-4.294,0-8.159,0.884-11.488,2.626c-2.58,1.351-4.844,3.091-6.753,5.189c-1.78-2.105-4.042-3.85-6.75-5.205
	c-3.464-1.731-7.616-2.611-12.341-2.611c-3.319,0-6.398,0.528-9.151,1.569c-2.53,0.953-4.769,2.244-6.664,3.843h-8.26v44.274h10.735
	V22.62c0-1.967,0.362-3.668,1.076-5.055c0.724-1.411,1.699-2.604,2.895-3.542c1.215-0.948,2.635-1.666,4.219-2.132
	c1.634-0.478,3.337-0.72,5.062-0.72c1.907,0,3.718,0.243,5.376,0.722c1.621,0.469,2.985,1.16,4.169,2.111
	c1.169,0.945,2.076,2.101,2.771,3.526c0.684,1.407,1.029,3.119,1.029,5.09v27.95h10.817V22.62c0-1.962,0.356-3.667,1.058-5.063
	c0.726-1.431,1.667-2.587,2.874-3.534c1.215-0.948,2.635-1.666,4.22-2.132c1.629-0.478,3.347-0.72,5.105-0.72
	c1.887,0,3.688,0.268,5.352,0.795c1.627,0.519,3.047,1.276,4.224,2.25c1.154,0.953,2.083,2.149,2.76,3.559
	c0.671,1.385,1.011,3.016,1.011,4.845v27.95h10.729V22.62c0-3.187-0.558-6.142-1.655-8.789
	C278.572,11.165,276.951,8.835,274.863,6.908z"/>
<path fill="#CED0D1" d="M331.024,23.881c-1.939-1.128-4.49-2.004-7.578-2.606c-2.987-0.586-6.722-1.005-11.09-1.245
	c-3.29-0.197-6.03-0.443-8.141-0.732c-2.01-0.277-3.565-0.621-4.631-1.026c-1.156-0.435-1.537-0.846-1.65-1.005
	c-0.237-0.336-0.353-0.758-0.353-1.292c0-0.758,0.204-1.404,0.624-1.977c0.464-0.633,1.162-1.177,2.075-1.617
	c1.039-0.499,2.34-0.884,3.868-1.146c1.583-0.275,3.404-0.415,5.413-0.415c3.975,0,7.784,0.441,11.325,1.312
	c3.547,0.868,7.204,2.216,10.868,4.004l2.589,1.265V6.034l-1.083-0.469c-3.47-1.507-7.251-2.678-11.241-3.483
	c-3.983-0.795-8.175-1.199-12.458-1.199c-1.523,0-3.133,0.086-4.777,0.254c-1.681,0.167-3.368,0.464-5.02,0.881
	c-1.703,0.433-3.32,1.015-4.803,1.727c-1.566,0.749-2.974,1.693-4.184,2.806c-1.258,1.154-2.265,2.549-2.989,4.14
	c-0.737,1.609-1.112,3.475-1.112,5.546c0,2.014,0.344,3.79,1.018,5.28c0.68,1.495,1.637,2.777,2.847,3.814
	c1.169,1,2.586,1.818,4.21,2.431c1.517,0.573,3.206,1.044,5.019,1.4c1.738,0.344,3.661,0.612,5.713,0.798
	c1.821,0.163,3.819,0.324,6.108,0.491c3.191,0.23,5.834,0.511,7.849,0.835c1.935,0.314,3.444,0.704,4.487,1.154
	c1.053,0.456,1.482,0.882,1.654,1.152c0.275,0.438,0.409,0.982,0.409,1.665c0,1.02-0.253,1.857-0.772,2.561
	c-0.566,0.765-1.43,1.419-2.571,1.945c-1.262,0.589-2.849,1.036-4.717,1.33c-1.93,0.306-4.168,0.461-6.651,0.461
	c-4.051,0-7.944-0.496-11.571-1.475c-3.654-0.99-7.271-2.476-10.75-4.415l-2.676-1.493v11.843l1.001,0.496
	c3.741,1.853,7.603,3.178,11.479,3.938c3.832,0.753,8.044,1.133,12.518,1.133c3.752,0,7.19-0.292,10.222-0.867
	c3.1-0.594,5.802-1.536,8.03-2.799c2.336-1.319,4.158-3.062,5.416-5.179c1.264-2.125,1.904-4.672,1.904-7.567
	c0-2.558-0.445-4.774-1.323-6.589C334.609,26.672,333.095,25.09,331.024,23.881z"/>
<path fill="#2675B9" d="M126.618,6.637c-2.286-1.878-5.14-3.337-8.483-4.336c-3.278-0.979-7.126-1.476-11.439-1.476
	c-3.818,0-7.376,0.448-10.575,1.332c-3.064,0.846-5.957,2.237-8.606,4.138H79.09v44.277h10.837V22.782
	c0-2.033,0.378-3.782,1.125-5.2c0.747-1.416,1.804-2.592,3.145-3.496c1.41-0.953,3.143-1.671,5.153-2.135
	c2.089-0.486,4.441-0.731,6.993-0.731c2.52,0,4.857,0.246,6.948,0.731c2.008,0.464,3.751,1.184,5.181,2.14
	c1.355,0.906,2.427,2.084,3.186,3.501c0.759,1.418,1.144,3.164,1.144,5.189v27.791h10.836V22.782c0-3.347-0.587-6.415-1.746-9.121
	C130.712,10.913,128.938,8.551,126.618,6.637z"/>
<path fill="#CED0D1" d="M389.367,6.637c-2.285-1.878-5.14-3.337-8.482-4.336c-3.278-0.979-7.127-1.476-11.439-1.476
	c-3.818,0-7.377,0.448-10.574,1.332c-3.064,0.846-5.957,2.237-8.606,4.138h-8.425v44.277h10.838V22.782
	c0-2.033,0.378-3.782,1.125-5.2c0.746-1.416,1.804-2.592,3.145-3.496c1.41-0.953,3.143-1.671,5.152-2.135
	c2.09-0.486,4.442-0.731,6.993-0.731c2.521,0,4.857,0.246,6.948,0.731c2.008,0.464,3.751,1.184,5.181,2.14
	c1.355,0.906,2.427,2.084,3.186,3.501c0.759,1.418,1.145,3.164,1.145,5.189v27.791h10.836V22.782c0-3.347-0.587-6.415-1.746-9.121
	C393.462,10.913,391.688,8.551,389.367,6.637z"/>
<rect x="61.916" y="6.298" fill="#2675B9" width="10.772" height="44.274"/>
<path fill="#2675B9" d="M48.493,6.637c-2.287-1.878-5.141-3.338-8.483-4.336c-3.278-0.979-7.126-1.476-11.439-1.476
	c-3.815,0-7.374,0.448-10.575,1.332c-3.064,0.846-5.957,2.237-8.605,4.138H0.965v44.277h10.838V22.782
	c0-2.029,0.379-3.778,1.125-5.2c0.747-1.416,1.804-2.592,3.145-3.496c1.41-0.953,3.143-1.671,5.152-2.135
	c2.089-0.486,4.441-0.731,6.99-0.731c2.522,0,4.86,0.246,6.951,0.731c2.01,0.465,3.753,1.184,5.181,2.14
	c1.354,0.906,2.427,2.084,3.186,3.501c0.759,1.418,1.143,3.165,1.143,5.189v27.791h10.838V22.782c0-3.341-0.586-6.409-1.745-9.122
	C52.588,10.914,50.814,8.552,48.493,6.637z"/>
<g>
	<path fill="#84C244" d="M439.448,43.891c-0.501-3.182-2.25-5.948-4.307-8.358c-1.223-1.432-2.55-2.788-3.957-4.049
		c-0.03,0.062-0.062,0.122-0.092,0.186c-0.706,1.431-1.495,2.822-2.438,4.115c-0.849,1.16-1.892,2.36-3.229,2.964
		c-3.021,1.366-5.184-1.883-6.294-4.227c-0.163-0.344-0.316-0.691-0.462-1.043c0.074,0.334,0.155,0.664,0.241,0.99
		c1.467,5.659,4.145,11.646,9.159,14.99c2.272,1.518,5.324,2.684,8.038,1.708C439.116,50.101,439.896,46.741,439.448,43.891"/>
	<path fill="#14BAED" d="M419.556,25.958c1.281-0.785,3.065-0.123,4.302,0.433c1.466,0.658,2.831,1.545,4.125,2.495
		c1.105,0.811,2.175,1.68,3.202,2.598c1.436-2.947,2.54-6.06,3.417-9.214c0.892-3.216,1.639-6.582,1.551-9.938
		c-0.083-3.058-0.839-6.251-2.678-8.747c-1.882-2.559-4.918-3.972-8.063-3.095c-2.986,0.834-5.282,3.275-6.806,5.876
		c-1.596,2.723-2.464,5.842-2.702,8.979c-0.25,3.288,0.027,6.637,0.558,9.884c0.459,2.796,1.114,5.622,2.207,8.25
		c-0.271-1.193-0.462-2.406-0.494-3.626C418.142,28.515,418.282,26.737,419.556,25.958"/>
	<path fill="#00A297" d="M425.427,38.749c1.337-0.604,2.381-1.805,3.229-2.965c0.942-1.293,1.73-2.683,2.438-4.115
		c0.03-0.062,0.062-0.123,0.091-0.188c-1.026-0.917-2.096-1.785-3.201-2.595c-1.293-0.951-2.658-1.837-4.125-2.497
		c-1.236-0.555-3.021-1.218-4.302-0.432c-1.274,0.78-1.414,2.556-1.381,3.897c0.031,1.22,0.223,2.433,0.495,3.626
		c0.146,0.35,0.299,0.697,0.463,1.039C420.241,36.865,422.404,40.114,425.427,38.749"/>
	<path fill="#F9BB18" d="M420.962,46.139c-0.146-1.606-0.632-3.173-1.151-4.692c-0.539-1.578-1.158-3.132-1.847-4.649
		c-0.342-0.75-0.696-1.495-1.079-2.226c0.268,0.923,0.484,1.855,0.628,2.794c0.104,0.693,0.386,2.594-0.775,2.582
		c-0.91-0.012-1.823-0.828-2.475-1.383c-0.995-0.844-1.914-1.781-2.789-2.756c0.045,1.01,0.148,2.019,0.302,3.015
		c0.492,3.195,1.727,6.337,3.78,8.857c0.855,1.052,2.36,2.688,3.896,2.383C421.069,49.739,421.074,47.386,420.962,46.139"/>
	<path fill="#F17E21" d="M411.456,34.097c0.021-0.798,0.078-1.604,0.252-2.381c0.127-0.577,0.328-1.365,0.886-1.678
		c1.224-0.686,2.664,1.773,3.158,2.557c0.406,0.641,0.78,1.302,1.133,1.977c-0.607-2.107-1.477-4.163-2.341-6.141
		c-1.296-2.966-2.746-5.937-4.654-8.564c-0.939-1.293-1.994-2.525-3.228-3.546c-0.974-0.804-2.648-2.036-3.978-1.381
		c-1.355,0.671-1.198,2.74-1.021,3.974c0.227,1.562,0.737,3.082,1.355,4.527c1.66,3.886,4.265,7.379,6.95,10.615
		c0.489,0.591,0.99,1.179,1.504,1.753C411.449,35.238,411.441,34.665,411.456,34.097"/>
	<path fill="#E63130" d="M414.264,38.565c0.653,0.554,1.564,1.371,2.474,1.382c1.16,0.012,0.879-1.889,0.775-2.581
		c-0.144-0.94-0.36-1.872-0.628-2.796c-0.353-0.674-0.727-1.336-1.133-1.977c-0.494-0.782-1.934-3.241-3.158-2.556
		c-0.557,0.312-0.759,1.102-0.886,1.677c-0.174,0.778-0.231,1.585-0.252,2.382c-0.014,0.568-0.007,1.142,0.018,1.712
		C412.349,36.783,413.267,37.72,414.264,38.565"/>
</g>
</svg>
