<?xml version="1.0" encoding="UTF-8" standalone="no"?>
<svg
   xmlns:dc="http://purl.org/dc/elements/1.1/"
   xmlns:cc="http://creativecommons.org/ns#"
   xmlns:rdf="http://www.w3.org/1999/02/22-rdf-syntax-ns#"
   xmlns:svg="http://www.w3.org/2000/svg"
   xmlns="http://www.w3.org/2000/svg"
   version="1.1"
   id="svg2"
   viewBox="0 0 354.3307 177.16535"
   height="50mm"
   width="100mm">
  <defs
     id="defs4" />
  <metadata
     id="metadata7">
    <rdf:RDF>
      <cc:Work
         rdf:about="">
        <dc:format>image/svg+xml</dc:format>
        <dc:type
           rdf:resource="http://purl.org/dc/dcmitype/StillImage" />
        <dc:title></dc:title>
      </cc:Work>
    </rdf:RDF>
  </metadata>
  <g
     transform="translate(0,-875.19685)"
     id="layer1">
    <path
       id="path3412"
       d="m 50.590907,1043.6664 259.351543,0 0,-97.25984 -129.67178,-64.8375 -129.671784,64.8375 z"
       style="fill:#28170b;fill-rule:evenodd" />
    <path
       d="m 67.559776,961.37902 13.639836,0 0,28.59785 0.235159,0 q 5.032472,-7.00791 11.61708,-7.00791 4.703326,0 7.290059,3.10427 2.63397,3.05704 2.63397,8.65437 l 0,32.9242 -13.686913,0 0,-26.3859 q 0,-2.53979 -1.034757,-3.95077 -0.987679,-1.45806 -2.774885,-1.45806 -4.280024,0 -4.280024,5.78523 l 0,26.0101 -13.639836,0 0,-66.26899 z m 61.895524,55.59348 q 2.68089,0 3.99787,-2.4927 1.36399,-2.4928 1.36399,-8.5131 0,-5.97344 -1.31691,-8.37198 -1.3169,-2.39874 -3.95088,-2.39874 -2.58697,0 -3.95087,2.35182 -1.36399,2.30466 -1.36399,8.5132 0,10.9116 5.22063,10.9116 z m -0.0941,-34.10041 q 9.35973,0 14.25105,6.25546 4.89156,6.20855 4.89156,17.30795 0,10.8646 -5.07971,16.8379 -5.07971,5.9262 -14.06274,5.9262 -8.60728,0 -13.68691,-6.0673 -5.03248,-6.0673 -5.03248,-16.6967 0,-11.10006 4.79733,-17.30797 4.84456,-6.25546 13.9223,-6.25546 z m 40.82534,1.50506 0,5.31486 q 5.83216,-6.81976 11.85247,-6.81976 7.24306,0 9.35973,7.47829 3.29243,-3.90372 6.11431,-5.691 2.86912,-1.78729 6.67885,-1.78729 9.54804,0 9.54804,13.35737 l 0,31.41858 -13.68691,0 0,-25.5402 q 0,-6.25548 -4.04488,-6.25548 -4.13887,0 -4.13887,6.16138 l 0,25.6335 -13.68691,0 0,-26.2926 q 0,-2.39884 -1.12875,-3.95094 -1.08176,-1.55206 -2.82213,-1.55206 -1.83428,0 -2.96303,1.50506 -1.08176,1.5051 -1.08176,4.09194 l 0,26.1968 -13.63984,0 0,-43.2702 13.63984,0 z m 64.10738,17.54335 9.92387,0 q -0.14109,-4.56244 -1.2699,-6.7258 -1.12884,-2.21058 -3.57458,-2.21058 -2.72788,0 -3.90371,2.11659 -1.17584,2.11651 -1.17584,6.81979 z m 9.92387,12.5107 11.52293,0 q -3.29242,14.5806 -16.46132,14.5806 -8.23066,0 -13.02862,-6.2554 -4.79733,-6.2555 -4.79733,-17.2616 0,-10.2535 4.79733,-16.41512 4.79732,-6.20854 12.74615,-6.20854 4.79732,0 9.2185,3.01027 4.42126,2.96304 6.44369,7.90159 2.02244,4.93856 2.25759,15.5677 l -22.81126,0 q 0.28221,9.6422 5.36186,9.6422 1.74021,0 3.10427,-1.27 1.36399,-1.2699 1.64613,-3.2921 z m 22.2942,-0.7525 q 7.00791,4.1389 10.11218,4.1389 1.69321,0 2.82213,-0.8466 1.12875,-0.8937 1.12875,-2.1165 0,-1.317 -0.94068,-1.9285 -0.94068,-0.6113 -7.05491,-3.2922 -4.89156,-2.1635 -7.05491,-5.0794 -2.16351,-2.963 -2.16351,-7.33734 0,-6.25546 4.28003,-10.30049 4.32702,-4.04488 11.00586,-4.04488 6.4906,0 15.89718,5.17371 l -5.26763,9.73556 q -6.1143,-3.76273 -10.01802,-3.76273 -3.38642,0 -3.38642,2.72789 0,1.31699 1.22283,2.30464 1.26991,0.9407 4.56218,2.11654 6.16129,2.1636 8.93602,5.1737 2.82212,3.01 2.82212,7.6195 0,6.5846 -4.42125,10.8175 -4.42125,4.233 -11.28833,4.233 -7.43129,0 -15.89718,-5.2206 l 4.70332,-10.1122 z m -129.46432,-48.91558 -7.30434,0 c 0.42917,-1.10657 1.63041,-2.575 3.71389,-2.575 1.98453,2.4e-4 3.20688,1.27422 3.59045,2.575 z m 0.29851,3.33033 c -0.34012,0.52616 -1.27885,1.5033 -3.43454,1.45742 -1.94743,-0.0415 -4.03035,-0.6938 -4.16855,-2.8226 l 9.96536,0 c 0,0 0.014,-0.83687 -0.17228,-1.96794 -0.32842,-1.99371 -1.8188,-4.71625 -5.88825,-4.71625 -3.90348,0 -6.62969,2.50375 -6.62969,6.08885 0,3.50164 2.53622,5.7641 6.74634,5.7641 3.09534,0 4.74331,-1.10123 5.65478,-2.4621 l -2.07318,-1.34148 z m 21.75957,-6.63041 c -0.48528,-0.4486 -1.08511,-0.80017 -1.78242,-1.04489 -0.68653,-0.24122 -1.47098,-0.3637 -2.33195,-0.3637 -1.00372,0 -1.90722,0.20667 -2.68536,0.61385 -0.60308,0.31574 -1.13226,0.72253 -1.57854,1.21294 -0.41608,-0.49209 -0.94483,-0.89999 -1.57783,-1.21669 -0.80974,-0.40463 -1.78026,-0.61034 -2.88476,-0.61034 -0.77583,0 -1.49556,0.12336 -2.13909,0.36673 -0.59141,0.22278 -1.11479,0.52456 -1.55772,0.89831 l -1.93084,0 0,10.34917 2.50934,0 0,-6.53274 c 0,-0.45977 0.0846,-0.85738 0.25151,-1.18166 0.16924,-0.32978 0.39716,-0.60866 0.67672,-0.82793 0.28401,-0.22159 0.61595,-0.38939 0.98624,-0.49839 0.38196,-0.11171 0.78004,-0.16828 1.18325,-0.16828 0.44578,0 0.86911,0.0566 1.25667,0.16876 0.37891,0.10963 0.69775,0.27114 0.97451,0.49344 0.27326,0.22095 0.48528,0.49113 0.64774,0.82418 0.15988,0.32891 0.24052,0.72915 0.24052,1.1898 l 0,6.53346 2.52848,0 0,-6.53346 c 0,-0.45857 0.0832,-0.85714 0.24731,-1.18349 0.16971,-0.3345 0.38967,-0.60468 0.67181,-0.8261 0.28401,-0.22159 0.61594,-0.38939 0.9864,-0.49831 0.38079,-0.11179 0.78238,-0.16828 1.19331,-0.16828 0.4411,0 0.86209,0.063 1.25108,0.18583 0.38031,0.12129 0.71225,0.29827 0.98736,0.52592 0.26975,0.22278 0.4869,0.5023 0.64516,0.83192 0.15685,0.32373 0.23632,0.70498 0.23632,1.13251 l 0,6.53346 2.50798,0 0,-6.53346 c 0,-0.74495 -0.13043,-1.43572 -0.38686,-2.05444 -0.25947,-0.62318 -0.63839,-1.16785 -1.12644,-1.61828 z m 13.12756,3.96747 c -0.45324,-0.26363 -1.04959,-0.46846 -1.7714,-0.60914 -0.69823,-0.137 -1.57129,-0.23491 -2.59232,-0.291 -0.76906,-0.0463 -1.40955,-0.10357 -1.90299,-0.17116 -0.46984,-0.0646 -0.83336,-0.14514 -1.08247,-0.23978 -0.27022,-0.10173 -0.35928,-0.1978 -0.3857,-0.23499 -0.0554,-0.0782 -0.0825,-0.17714 -0.0825,-0.30194 0,-0.17722 0.0477,-0.32818 0.14586,-0.46216 0.10846,-0.14793 0.27162,-0.27512 0.48505,-0.37798 0.24286,-0.11665 0.54698,-0.20666 0.90413,-0.26786 0.37004,-0.0646 0.7957,-0.097 1.26528,-0.097 0.92919,0 1.81952,0.10309 2.6473,0.30672 0.82913,0.20284 1.68395,0.51794 2.54045,0.93598 l 0.60519,0.29563 0,-2.65711 -0.25315,-0.10964 c -0.8111,-0.3522 -1.69496,-0.62597 -2.62759,-0.81413 -0.93102,-0.18583 -1.91096,-0.28023 -2.91213,-0.28023 -0.356,0 -0.73235,0.0199 -1.11662,0.0591 -0.39294,0.0391 -0.78728,0.10844 -1.17344,0.20594 -0.39808,0.10118 -0.77606,0.23723 -1.12269,0.40368 -0.36606,0.17506 -0.69518,0.39577 -0.97802,0.6559 -0.29406,0.26978 -0.52945,0.59581 -0.69869,0.96773 -0.17228,0.37614 -0.25994,0.81229 -0.25994,1.2964 0,0.47078 0.0804,0.88594 0.23797,1.23424 0.15895,0.34949 0.38265,0.64911 0.6655,0.89153 0.27325,0.23379 0.60448,0.42497 0.98409,0.56828 0.3546,0.13389 0.74941,0.24401 1.17319,0.32723 0.40627,0.0804 0.85579,0.14307 1.33542,0.18656 0.42567,0.0383 0.89273,0.0758 1.42774,0.11474 0.74591,0.0535 1.36374,0.11945 1.83476,0.19518 0.45232,0.0734 0.80504,0.16461 1.04888,0.26978 0.24615,0.1066 0.34643,0.20618 0.38663,0.2693 0.0643,0.10237 0.0956,0.22956 0.0956,0.38915 0,0.23842 -0.0591,0.43407 -0.18046,0.59869 -0.1323,0.17881 -0.33427,0.3317 -0.60098,0.45466 -0.29499,0.13764 -0.66597,0.24217 -1.10258,0.31087 -0.45114,0.0718 -0.97427,0.10772 -1.55469,0.10772 -0.9469,0 -1.85694,-0.11594 -2.70474,-0.34478 -0.85411,-0.2314 -1.6996,-0.57874 -2.51285,-1.03205 l -0.62553,-0.34893 0,2.76834 0.23399,0.11594 c 0.87445,0.43312 1.77723,0.74287 2.68328,0.92049 0.89576,0.17603 1.88032,0.26484 2.92617,0.26484 0.87701,0 1.68068,-0.0686 2.38941,-0.20268 0.72464,-0.13884 1.35624,-0.35907 1.87705,-0.6543 0.54605,-0.30832 0.97196,-0.71575 1.266,-1.21062 0.29546,-0.49671 0.44506,-1.09213 0.44506,-1.76886 0,-0.59789 -0.10402,-1.1159 -0.30925,-1.54016 -0.21505,-0.44597 -0.56896,-0.81581 -1.05303,-1.09844 z m -47.7817,-4.03083 c -0.53436,-0.43894 -1.20153,-0.78005 -1.98294,-1.01353 -0.76625,-0.22884 -1.66576,-0.34502 -2.67395,-0.34502 -0.89248,0 -1.72417,0.10476 -2.47191,0.31135 -0.71622,0.19781 -1.39247,0.52296 -2.01166,0.96725 l -1.96938,0 0,10.34997 2.5332,0 0,-6.49604 c 0,-0.47517 0.0884,-0.88403 0.26297,-1.21549 0.17461,-0.33098 0.42169,-0.60587 0.73516,-0.81724 0.32959,-0.2227 0.73469,-0.39059 1.20456,-0.49903 0.48831,-0.11362 1.0381,-0.17091 1.63464,-0.17091 0.58905,0 1.13537,0.0575 1.6241,0.17091 0.46938,0.10844 0.87677,0.27673 1.2111,0.50023 0.31674,0.21177 0.56733,0.48713 0.74475,0.81835 0.17742,0.33147 0.26741,0.73961 0.26741,1.21294 l 0,6.49628 2.53295,0 0,-6.49604 c 0,-0.78237 -0.13721,-1.49955 -0.40813,-2.13207 -0.27583,-0.64234 -0.69052,-1.19451 -1.23281,-1.64191 z m 61.41915,0 c -0.53413,-0.43894 -1.20153,-0.78005 -1.9827,-1.01353 -0.76625,-0.22884 -1.66592,-0.34502 -2.67387,-0.34502 -0.89249,0 -1.72441,0.10476 -2.47175,0.31135 -0.71622,0.19781 -1.39247,0.52296 -2.01167,0.96725 l -1.96937,0 0,10.34997 2.53343,0 0,-6.49604 c 0,-0.47517 0.0884,-0.88403 0.26298,-1.21549 0.17438,-0.33098 0.42169,-0.60587 0.73515,-0.81724 0.3296,-0.2227 0.73469,-0.39059 1.20432,-0.49903 0.48854,-0.11362 1.03835,-0.17091 1.63464,-0.17091 0.58929,0 1.13538,0.0575 1.62411,0.17091 0.46939,0.10844 0.87685,0.27673 1.2111,0.50023 0.31674,0.21177 0.56732,0.48713 0.74474,0.81835 0.17742,0.33147 0.26765,0.73961 0.26765,1.21294 l 0,6.49628 2.53295,0 0,-6.49604 c 0,-0.78237 -0.13721,-1.49955 -0.40814,-2.13207 -0.27629,-0.64234 -0.69097,-1.19451 -1.23352,-1.64191 z m -76.54234,-0.079 2.51803,0 0,10.34917 -2.51803,0 z m -3.13771,0.079 c -0.53459,-0.43894 -1.20176,-0.78021 -1.98293,-1.01353 -0.76625,-0.22884 -1.66577,-0.34502 -2.67395,-0.34502 -0.89177,0 -1.723692,0.10476 -2.471912,0.31135 -0.716223,0.19781 -1.39247,0.52296 -2.011425,0.96725 l -1.969613,0 0,10.34997 2.533431,0 0,-6.49604 c 0,-0.47429 0.08859,-0.88315 0.262975,-1.21549 0.174611,-0.33098 0.42169,-0.60587 0.735157,-0.81724 0.329594,-0.2227 0.734688,-0.39059 1.204318,-0.49903 0.488309,-0.11362 1.038109,-0.17091 1.633919,-0.17091 0.58953,0 1.13602,0.0575 1.62483,0.17091 0.46985,0.10868 0.87725,0.27673 1.2111,0.50023 0.31651,0.21177 0.56732,0.48713 0.74474,0.81835 0.17742,0.33147 0.26718,0.73985 0.26718,1.21294 l 0,6.49628 2.53343,0 0,-6.49604 c 0,-0.78094 -0.13698,-1.49812 -0.4079,-2.13231 -0.27606,-0.64186 -0.69074,-1.19403 -1.23328,-1.64167 z"
       style="fill:#ffffff"
       id="path15" />
  </g>
</svg>
